<svg xmlns="http://www.w3.org/2000/svg" viewBox="0 0 420 110" role="img" aria-labelledby="title desc">
  <title id="title">AMFIT logo</title>
  <desc id="desc">AMFIT icon and green wordmark</desc>
  <rect width="420" height="110" fill="none"/>

  <g transform="translate(6,8)">
    <path d="M20 78c0-20 14-36 33-39-9 7-15 17-15 29 0 11 5 20 14 26-18-1-32-8-32-16z" fill="#93D235"/>
    <path d="M57 22c16 3 29 16 29 33 0 20-17 35-38 35 12-7 21-20 21-34 0-13-6-25-12-34z" fill="#34A853"/>
    <circle cx="64" cy="23" r="7" fill="#0F5C4D"/>
    <path d="M46 77c6-13 15-22 25-29 5-3 9 3 5 7-9 8-15 17-19 29H46z" fill="#0F5C4D"/>
  </g>

  <text
    x="106"
    y="78"
    font-family="Arial Black, Impact, Trebuchet MS, sans-serif"
    font-size="66"
    font-weight="900"
    letter-spacing="-2"
    fill="#0A9C5A"
  >amfit</text>
</svg>