<svg xmlns="http://www.w3.org/2000/svg" viewBox="0 0 128 128" role="img" aria-labelledby="title desc">
  <title id="title">AMFIT icon</title>
  <desc id="desc">Green wellness icon with leaf and human silhouette</desc>
  <rect width="128" height="128" rx="20" fill="none"/>
  <path d="M20 90c0-24 17-43 39-46-11 8-18 20-18 34 0 13 6 24 16 31-21-1-37-9-37-19z" fill="#93D235"/>
  <path d="M64 25c19 3 34 19 34 39 0 23-20 41-44 41 14-8 24-23 24-40 0-15-7-29-14-40z" fill="#34A853"/>
  <circle cx="72" cy="34" r="8" fill="#0F5C4D"/>
  <path d="M52 89c7-15 17-26 30-33 6-3 10 4 6 8-11 10-18 20-23 34H52z" fill="#0F5C4D"/>
</svg>